<svg xmlns="http://www.w3.org/2000/svg" height="40px" viewBox="0 -960 960 960" width="40px" fill="#434343"><path d="M787.33-122q-21.66 0-37.16-15.5-15.5-15.5-15.5-37.17 0-21.66 15.5-37.16 15.5-15.5 37.16-15.5 21.67 0 37.17 15.5t15.5 37.16q0 21.67-15.5 37.17T787.33-122Zm-390 42q-98 0-167.66-20.5Q160-121 160-152.67q0-21.66 37.67-40 37.66-18.33 91.66-28V-184q0 15.67 10.84 26.5 10.83 10.83 26.5 10.83 15.66 0 26.5-10.83Q364-168.33 364-184v-642.67q0-19 15.67-28.83 15.66-9.83 32.33-1.17l194 94.34q19 9 19.33 30 .34 21-18.33 30l-176.33 91.66V-226q88.66 5 146.33 25.5 57.67 20.5 57.67 47.83 0 31.67-69.67 52.17T397.33-80Z"/></svg>